<?xml version="1.0" encoding="UTF-8" standalone="no"?><!DOCTYPE svg PUBLIC "-//W3C//DTD SVG 1.1//EN" "http://www.w3.org/Graphics/SVG/1.1/DTD/svg11.dtd"><svg width="100%" height="100%" viewBox="0 0 500 500" version="1.1" xmlns="http://www.w3.org/2000/svg" xmlns:xlink="http://www.w3.org/1999/xlink" xml:space="preserve" xmlns:serif="http://www.serif.com/" style="fill-rule:evenodd;clip-rule:evenodd;stroke-linejoin:round;stroke-miterlimit:1.41421;"><rect x="0" y="0" width="500" height="500" style="fill:#f0f0f0;"/><rect x="40" y="40" width="420" height="420" style="fill:#f0f0f0;"/><path d="M460,40l0,84l-84,0l0,-39.848l0,-44.152l84,0Zm-84,0l0,84l-84,0l0,-84l84,0Z" style="fill:#845fce;"/><rect x="40" y="40" width="168" height="84" style="fill:#845fce;"/><path d="M376,460l-84,0l0,-84l84,0l0,84Zm-168,0l-84,0l0,-84l84,0l0,84Zm252,-84l-84,0l0,-252l84,0l0,252Zm-336,0l-84,0l0,-84l84,0l0,84Zm0,-84l-84,0l0,-168l336,0l0,168l-84,0l0,-84l-84,0l0,84l-84,0l0,-84l0,84Zm168,-168l-84,0l0,-84l84,0l0,84Z" style="fill:#f0f0f0;"/><path d="M376,376l84,0l0,84l-84,0l0,-84Zm-336,0l84,0l0,84l-84,0l0,-84Zm84,-84l252,0l0,84l-84,0l0,84l-84,0l0,-84l-84,0l0,-84Zm168,-84l0,84l-84,0l0,-84l84,0Z" style="fill:#845fce;"/></svg>